HIERARCHY
ROOT Hips
{
	OFFSET 0.000000 0.000000 0.000000
	CHANNELS 6 Xposition Yposition Zposition Yrotation Xrotation Zrotation
	JOINT Chest
	{
		OFFSET 0.000000 -0.009282 11.569106
		CHANNELS 6 Xposition Yposition Zposition Yrotation Xrotation Zrotation
		JOINT Chest2
		{
			OFFSET -0.000000 0.016863 9.269641
			CHANNELS 6 Xposition Yposition Zposition Yrotation Xrotation Zrotation
			JOINT Chest3
			{
				OFFSET -0.000000 0.000000 8.374491
				CHANNELS 6 Xposition Yposition Zposition Yrotation Xrotation Zrotation
				JOINT Chest4
				{
					OFFSET -0.000000 0.000000 8.374493
					CHANNELS 6 Xposition Yposition Zposition Yrotation Xrotation Zrotation
					JOINT Neck
					{
						OFFSET -0.000000 0.000001 12.152554
						CHANNELS 6 Xposition Yposition Zposition Yrotation Xrotation Zrotation
						JOINT Head
						{
							OFFSET -0.000000 0.040100 7.802319
							CHANNELS 6 Xposition Yposition Zposition Yrotation Xrotation Zrotation
							End Site
							{
								OFFSET -0.000000 0.020946 14.853096
							}
						}
					}
					JOINT RightCollar
					{
						OFFSET 2.894404 0.000001 6.791374
						CHANNELS 6 Xposition Yposition Zposition Yrotation Xrotation Zrotation
						JOINT RightShoulder
						{
							OFFSET 13.574684 0.000001 0.000000
							CHANNELS 6 Xposition Yposition Zposition Yrotation Xrotation Zrotation
							JOINT RightElbow
							{
								OFFSET 23.923903 0.000002 0.000000
								CHANNELS 6 Xposition Yposition Zposition Yrotation Xrotation Zrotation
								JOINT RightWrist
								{
									OFFSET 19.846718 0.012767 0.000000
									CHANNELS 6 Xposition Yposition Zposition Yrotation Xrotation Zrotation
									End Site
									{
										OFFSET 14.973145 0.000001 0.000000
									}
								}
							}
						}
					}
					JOINT LeftCollar
					{
						OFFSET -2.894404 0.000000 6.791374
						CHANNELS 6 Xposition Yposition Zposition Yrotation Xrotation Zrotation
						JOINT LeftShoulder
						{
							OFFSET -13.574684 -0.000001 0.000000
							CHANNELS 6 Xposition Yposition Zposition Yrotation Xrotation Zrotation
							JOINT LeftElbow
							{
								OFFSET -23.923903 -0.000002 0.000000
								CHANNELS 6 Xposition Yposition Zposition Yrotation Xrotation Zrotation
								JOINT LeftWrist
								{
									OFFSET -19.846718 0.012763 0.000000
									CHANNELS 6 Xposition Yposition Zposition Yrotation Xrotation Zrotation
									End Site
									{
										OFFSET -14.973145 -0.000001 0.000000
									}
								}
							}
						}
					}
				}
			}
		}
	}
	JOINT RightHip
	{
		OFFSET 9.469263 0.004643 0.045487
		CHANNELS 6 Xposition Yposition Zposition Yrotation Xrotation Zrotation
		JOINT RightKnee
		{
			OFFSET 0.000000 0.002666 -40.478676
			CHANNELS 6 Xposition Yposition Zposition Yrotation Xrotation Zrotation
			JOINT RightAnkle
			{
				OFFSET 0.000000 0.049110 -35.224068
				CHANNELS 6 Xposition Yposition Zposition Yrotation Xrotation Zrotation
				JOINT RightToe
				{
					OFFSET -0.000001 12.539530 -6.151390
					CHANNELS 6 Xposition Yposition Zposition Yrotation Xrotation Zrotation
					End Site
					{
						OFFSET -0.000001 5.044996 -1.291870
					}
				}
			}
		}
	}
	JOINT LeftHip
	{
		OFFSET -9.469263 0.004641 0.045487
		CHANNELS 6 Xposition Yposition Zposition Yrotation Xrotation Zrotation
		JOINT LeftKnee
		{
			OFFSET 0.000000 0.002666 -40.478676
			CHANNELS 6 Xposition Yposition Zposition Yrotation Xrotation Zrotation
			JOINT LeftAnkle
			{
				OFFSET 0.000000 0.049110 -35.224068
				CHANNELS 6 Xposition Yposition Zposition Yrotation Xrotation Zrotation
				JOINT LeftToe
				{
					OFFSET -0.000001 12.539530 -6.151390
					CHANNELS 6 Xposition Yposition Zposition Yrotation Xrotation Zrotation
					End Site
					{
						OFFSET -0.000001 5.044996 -1.291870
					}
				}
			}
		}
	}
}
MOTION
Frames: 8
Frame Time: 0.016667
6.592924 3.419491 83.002022 -9.213783 -2.717920 -103.511531 0.000000 -0.009280 11.569106 -0.245229 -4.163049 1.405711 0.000000 0.016864 9.269639 -0.074042 -1.873578 0.705478 0.000000 0.000001 8.374493 -0.074042 -1.873578 0.705481 -0.000000 0.000000 8.374509 -0.053363 -1.405272 0.528836 0.000001 0.000002 12.152569 5.185542 -16.684964 -10.128841 0.000001 0.040105 7.802311 6.046000 5.229146 -16.943664 2.894404 0.000000 6.791376 6.961482 0.171932 -10.550527 13.574685 0.000002 0.000015 63.084884 10.335630 42.462012 23.923912 0.000013 -0.000007 46.436919 -53.785335 80.285049 19.846710 0.012768 0.000008 -28.490920 19.037223 16.073402 -2.894404 -0.000000 6.791378 -7.079495 0.736613 -5.936438 -13.574686 -0.000002 0.000002 -53.854290 -3.295209 -48.900176 -23.923895 -0.000014 0.000002 -35.999192 -29.900885 -71.869894 -19.846716 0.012759 0.000005 24.955145 25.779779 -28.233150 9.469262 0.004645 0.045490 1.891495 -13.993680 -11.222790 0.000103 0.002658 -40.478489 -3.573996 3.541419 -2.425333 0.000037 0.049107 -35.224007 4.415824 1.573597 -0.664739 -0.000001 12.539527 -6.151398 -0.020813 -0.034307 0.015283 -9.469262 0.004643 0.045491 1.424088 -13.796181 -22.520563 -0.000879 0.002508 -40.478470 -1.434648 5.321590 19.112835 -0.000973 0.048928 -35.224022 1.294930 0.709571 21.374865 0.000004 12.539535 -6.151395 0.014597 0.015973 -0.069418 
6.568508 3.453104 83.003021 -9.152829 -2.719824 -103.538974 -0.000000 -0.009280 11.569101 -0.235324 -4.227577 1.390545 0.000000 0.016863 9.269639 -0.072447 -1.903550 0.700198 0.000000 0.000001 8.374481 -0.072447 -1.903551 0.700200 -0.000000 0.000001 8.374498 -0.052149 -1.427749 0.524876 -0.000000 0.000001 12.152549 5.202354 -16.813119 -10.089292 -0.000002 0.040101 7.802320 6.102752 4.995489 -16.860672 2.894404 0.000001 6.791381 7.006821 0.167330 -10.545195 13.574684 -0.000000 0.000001 63.126015 10.413855 42.422165 23.923889 0.000007 0.000006 44.733945 -54.062238 81.540752 19.846718 0.012778 0.000005 -27.767827 18.975932 16.806625 -2.894404 0.000000 6.791376 -7.105896 0.713926 -5.909924 -13.574683 -0.000001 -0.000003 -53.748292 -3.225433 -48.886492 -23.923895 -0.000013 -0.000007 -35.228360 -30.199190 -72.259283 -19.846722 0.012753 0.000001 24.532091 25.287756 -29.131535 9.469263 0.004645 0.045477 1.883907 -13.918584 -11.205514 0.000102 0.002658 -40.478500 -3.583833 3.564059 -2.432324 0.000035 0.049105 -35.224003 4.447968 1.529481 -0.639373 0.000000 12.539528 -6.151402 -0.023722 -0.037143 0.007873 -9.469264 0.004644 0.045478 1.423998 -13.732751 -22.493442 -0.000880 0.002507 -40.478470 -1.429245 5.362354 19.110367 -0.000960 0.048930 -35.224018 1.290535 0.654316 21.081374 0.000001 12.539536 -6.151392 0.019115 0.025876 -0.054767 
6.545792 3.485582 83.004242 -9.092955 -2.718584 -103.566343 -0.000000 -0.009281 11.569102 -0.227219 -4.293764 1.375865 0.000000 0.016864 9.269645 -0.071274 -1.932411 0.694994 0.000001 -0.000000 8.374481 -0.071274 -1.932411 0.694993 0.000000 0.000001 8.374507 -0.051252 -1.449391 0.520971 0.000000 0.000002 12.152535 5.221459 -16.953004 -10.048459 -0.000000 0.040100 7.802314 6.165075 4.740342 -16.774432 2.894405 0.000001 6.791368 7.052753 0.143381 -10.531475 13.574682 0.000001 0.000006 63.151786 10.447692 42.380050 23.923901 0.000006 -0.000012 43.285385 -54.292118 82.625509 19.846725 0.012760 0.000002 -27.150121 18.828327 17.410765 -2.894404 0.000001 6.791365 -7.123293 0.678995 -5.876475 -13.574683 -0.000002 -0.000007 -53.624020 -3.195124 -48.860274 -23.923897 -0.000010 -0.000006 -34.512898 -30.432485 -72.663958 -19.846714 0.012755 -0.000003 24.078331 24.958017 -30.001326 9.469262 0.004644 0.045491 1.875945 -13.848701 -11.189378 0.000103 0.002658 -40.478504 -3.596199 3.593591 -2.444373 0.000034 0.049106 -35.224007 4.476960 1.485510 -0.620175 -0.000001 12.539526 -6.151399 -0.023523 -0.041079 0.001860 -9.469260 0.004643 0.045486 1.419214 -13.673298 -22.452879 -0.000880 0.002507 -40.478451 -1.424733 5.401945 19.095546 -0.000960 0.048933 -35.224022 1.293376 0.611095 21.092932 0.000001 12.539535 -6.151398 0.022704 0.029230 -0.041768 
6.522718 3.517052 83.005295 -9.031540 -2.713909 -103.590897 -0.000000 -0.009282 11.569101 -0.220566 -4.359507 1.361972 0.000000 0.016864 9.269639 -0.070523 -1.962356 0.690672 0.000000 -0.000001 8.374493 -0.070523 -1.962356 0.690674 0.000000 0.000000 8.374500 -0.050669 -1.471850 0.517727 0.000001 0.000001 12.152562 5.245519 -17.098233 -10.008877 -0.000002 0.040108 7.802310 6.236375 4.475656 -16.688922 2.894404 0.000001 6.791383 7.100286 0.104277 -10.511898 13.574685 -0.000000 -0.000003 63.166853 10.455477 42.327621 23.923903 0.000015 -0.000006 42.240970 -54.498042 83.413023 19.846716 0.012746 0.000008 -26.494370 18.650880 18.068813 -2.894403 0.000000 6.791383 -7.136851 0.639838 -5.851382 -13.574685 -0.000001 0.000001 -53.489001 -3.193578 -48.813313 -23.923897 -0.000007 -0.000009 -34.025264 -30.619352 -72.988160 -19.846712 0.012754 -0.000010 23.707165 24.516161 -30.879910 9.469262 0.004644 0.045482 1.869948 -13.780235 -11.175132 0.000104 0.002659 -40.478500 -3.612462 3.631793 -2.454990 0.000033 0.049104 -35.223999 4.506845 1.436401 -0.595591 0.000000 12.539524 -6.151392 -0.024298 -0.043614 -0.002619 -9.469264 0.004642 0.045480 1.414782 -13.607263 -22.411114 -0.000879 0.002507 -40.478451 -1.424508 5.438825 19.075947 -0.000961 0.048932 -35.224030 1.295129 0.567354 21.107127 -0.000001 12.539532 -6.151392 0.027426 0.032268 -0.030797 
6.503531 3.536685 83.007072 -8.978448 -2.719954 -103.628197 0.000000 -0.009281 11.569111 -0.206284 -4.439523 1.367188 0.000001 0.016862 9.269644 -0.070698 -1.994951 0.688108 0.000000 -0.000000 8.374486 -0.070698 -1.994951 0.688108 -0.000000 0.000001 8.374489 -0.050772 -1.496296 0.515797 -0.000001 0.000000 12.152549 5.275948 -17.237849 -9.974223 0.000001 0.040094 7.802327 6.316988 4.221661 -16.610764 2.894404 0.000000 6.791372 7.151561 0.065075 -10.505498 13.574684 0.000001 -0.000007 63.203162 10.485591 42.276631 23.923903 0.000012 -0.000002 41.340946 -54.682904 84.049508 19.846710 0.012762 -0.000005 -25.638666 18.502136 18.911255 -2.894405 -0.000000 6.791367 -7.152171 0.609432 -5.837152 -13.574683 -0.000002 0.000009 -53.375094 -3.196962 -48.757299 -23.923901 -0.000017 -0.000007 -33.678287 -30.775914 -73.223897 -19.846724 0.012764 -0.000003 23.423364 23.797004 -31.791911 9.469262 0.004644 0.045494 1.877629 -13.724563 -11.149076 0.000103 0.002658 -40.478504 -3.636236 3.670126 -2.460293 0.000031 0.049109 -35.224007 4.540719 1.385654 -0.571135 0.000001 12.539527 -6.151396 -0.029314 -0.040331 -0.014417 -9.469261 0.004643 0.045496 1.410724 -13.550305 -22.371344 -0.000880 0.002508 -40.478455 -1.420026 5.474755 19.073886 -0.000973 0.048927 -35.224030 1.292564 0.533152 21.353386 0.000000 12.539536 -6.151391 0.043177 0.030144 0.002969 
6.474005 3.580315 83.007660 -8.900184 -2.678810 -103.597174 0.000000 -0.009283 11.569104 -0.228610 -4.479542 1.305355 -0.000000 0.016862 9.269655 -0.071222 -2.026394 0.686863 0.000000 0.000000 8.374490 -0.071222 -2.026393 0.686864 0.000000 0.000000 8.374501 -0.051133 -1.519877 0.514857 -0.000000 0.000003 12.152531 5.313391 -17.377840 -9.944401 -0.000001 0.040104 7.802310 6.408693 3.967347 -16.539419 2.894403 0.000001 6.791367 7.208215 0.018309 -10.510310 13.574686 0.000000 -0.000006 63.277803 10.538837 42.240164 23.923885 0.000003 0.000000 40.309434 -54.815389 84.730218 19.846710 0.012763 -0.000003 -24.598516 18.397958 19.878957 -2.894405 0.000000 6.791366 -7.178153 0.571262 -5.822829 -13.574687 -0.000001 -0.000006 -53.310825 -3.172922 -48.708278 -23.923891 -0.000014 0.000004 -33.179423 -30.940129 -73.499666 -19.846712 0.012764 -0.000007 23.217664 22.936607 -32.612644 9.469264 0.004644 0.045493 1.851885 -13.627429 -11.186586 0.000104 0.002658 -40.478489 -3.659644 3.708223 -2.470511 0.000030 0.049106 -35.224003 4.575069 1.349714 -0.564789 -0.000001 12.539527 -6.151396 -0.027332 -0.057275 -0.013207 -9.469263 0.004641 0.045486 1.382333 -13.458324 -22.418064 -0.000877 0.002506 -40.478462 -1.408081 5.510064 19.081914 -0.000970 0.048928 -35.224033 1.304640 0.477653 21.317311 0.000001 12.539534 -6.151386 0.031071 0.036182 -0.022576 
6.455043 3.600749 83.009773 -8.854859 -2.697587 -103.644371 0.000001 -0.009283 11.569113 -0.210470 -4.562062 1.325766 -0.000000 0.016863 9.269643 -0.070594 -2.058360 0.688566 -0.000000 -0.000000 8.374491 -0.070594 -2.058359 0.688566 -0.000000 0.000001 8.374502 -0.050620 -1.543851 0.516130 -0.000000 0.000002 12.152566 5.357580 -17.515827 -9.920971 0.000002 0.040099 7.802322 6.510265 3.717038 -16.477915 2.894405 0.000001 6.791376 7.270070 -0.022054 -10.515381 13.574686 0.000002 -0.000004 63.362395 10.607462 42.200068 23.923899 0.000003 -0.000001 38.981973 -54.918085 85.619720 19.846716 0.012760 0.000002 -23.696850 18.337443 20.797699 -2.894404 -0.000000 6.791380 -7.215392 0.522496 -5.809370 -13.574683 -0.000002 0.000005 -53.277436 -3.133526 -48.669824 -23.923908 -0.000005 -0.000002 -32.439765 -31.078529 -73.850246 -19.846710 0.012760 -0.000004 22.858265 22.277777 -33.348457 9.469264 0.004643 0.045488 1.864194 -13.580726 -11.141801 0.000104 0.002658 -40.478497 -3.682951 3.744489 -2.485476 0.000029 0.049108 -35.224010 4.614856 1.293457 -0.530280 0.000001 12.539528 -6.151392 -0.036694 -0.048599 -0.034329 -9.469262 0.004642 0.045491 1.380713 -13.410206 -22.372821 -0.000879 0.002508 -40.478458 -1.397991 5.544820 19.083596 -0.000977 0.048922 -35.224026 1.296221 0.444431 21.477695 -0.000002 12.539534 -6.151392 0.054212 0.030889 0.029691 
6.421655 3.653902 83.010956 -8.783294 -2.659753 -103.638019 -0.000000 -0.009283 11.569097 -0.233912 -4.609279 1.294727 0.000001 0.016863 9.269647 -0.068888 -2.092865 0.692025 -0.000000 0.000000 8.374470 -0.068888 -2.092865 0.692023 0.000000 -0.000000 8.374495 -0.049290 -1.569729 0.518724 0.000000 0.000003 12.152572 5.407091 -17.648874 -9.904688 -0.000000 0.040101 7.802302 6.618586 3.476001 -16.428213 2.894405 0.000001 6.791376 7.323883 -0.075376 -10.513245 13.574684 -0.000000 -0.000010 63.427602 10.658912 42.158315 23.923883 0.000018 -0.000001 37.448609 -54.975868 86.702128 19.846716 0.012753 0.000009 -23.021120 18.260089 21.546723 -2.894404 -0.000000 6.791377 -7.258225 0.478655 -5.801183 -13.574684 -0.000002 0.000016 -53.235635 -3.083848 -48.614336 -23.923901 0.000008 -0.000005 -31.738127 -31.189280 -74.168259 -19.846714 0.012754 0.000004 22.313827 21.818213 -34.168100 9.469262 0.004642 0.045477 1.823231 -13.486006 -11.146642 0.000105 0.002658 -40.478497 -3.695380 3.777836 -2.500911 0.000029 0.049107 -35.224010 4.644960 1.253214 -0.529834 0.000001 12.539527 -6.151397 -0.032968 -0.063445 -0.027923 -9.469263 0.004642 0.045477 1.353924 -13.328714 -22.386508 -0.000881 0.002507 -40.478455 -1.388516 5.582334 19.091304 -0.000970 0.048927 -35.224026 1.313461 0.371543 21.272708 -0.000001 12.539534 -6.151387 0.027593 0.047390 -0.022059 
